<svg width="21" height="21" viewBox="0 0 21 21" fill="none" xmlns="http://www.w3.org/2000/svg">
<path d="M21 21H0L0.144375 20.2913C0.144375 20.0156 0.826875 14.5162 4.97437 11.6944L5.39438 11.4187L5.80125 11.6944C7.06388 12.8159 8.736 13.501 10.5682 13.501C12.3368 13.501 13.9565 12.8625 15.2093 11.8033L15.1987 11.8118L15.6056 11.5362L16.0256 11.8118C20.3044 14.6337 20.8556 20.1331 20.8556 20.4087L21 21ZM1.5225 19.5956H19.3463C18.835 16.9923 17.4956 14.763 15.6201 13.1368L15.6056 13.125C14.1724 14.1763 12.3736 14.8076 10.4278 14.8076C8.48203 14.8076 6.68325 14.1763 5.22506 13.1073L5.25 13.1243C3.41447 14.8004 2.09409 17.0133 1.53759 19.5136L1.5225 19.595V19.5956ZM10.5 0C7.23056 0 4.58063 2.64994 4.58063 5.91938C4.58063 9.18881 7.23056 11.8388 10.5 11.8388C13.7694 11.8388 16.4194 9.18881 16.4194 5.91938C16.4194 2.64994 13.7694 0 10.5 0ZM10.5 10.4213C10.4961 10.4213 10.4915 10.4213 10.4869 10.4213C7.99312 10.4213 5.97188 8.4 5.97188 5.90625C5.97188 3.4125 7.99312 1.39125 10.4869 1.39125C12.9806 1.39125 15.0019 3.4125 15.0019 5.90625C15.0019 5.91084 15.0019 5.91544 15.0019 5.92003C14.9947 8.40328 12.9826 10.414 10.5 10.4213Z" fill="white"/>
</svg>
